<?xml version="1.0" standalone="no"?>
<!DOCTYPE svg PUBLIC "-//W3C//DTD SVG 20010904//EN"
 "http://www.w3.org/TR/2001/REC-SVG-20010904/DTD/svg10.dtd">
<svg version="1.0" xmlns="http://www.w3.org/2000/svg"
 width="700.000000pt" height="700.000000pt" viewBox="0 0 700.000000 700.000000"
 preserveAspectRatio="xMidYMid meet">
<metadata>
Created by potrace 1.14, written by Peter Selinger 2001-2017
</metadata>
<g transform="translate(0.000000,700.000000) scale(0.100000,-0.100000)"
fill="#000000" stroke="none">
<path d="M3368 6345 c-2 -2 -46 -5 -98 -9 -112 -8 -175 -17 -350 -50 -142 -27
-347 -91 -515 -160 -87 -36 -362 -175 -388 -196 -6 -5 -57 -40 -112 -76 -193
-129 -412 -323 -566 -504 -71 -83 -199 -256 -239 -323 -17 -29 -35 -59 -40
-67 -22 -33 -120 -212 -120 -218 0 -4 -11 -29 -25 -57 -68 -141 -143 -363
-188 -560 -31 -134 -37 -168 -52 -310 -3 -33 -8 -78 -11 -100 -5 -50 -5 -378
0 -425 2 -19 7 -65 11 -102 3 -37 8 -77 10 -89 3 -13 7 -41 10 -64 4 -22 17
-89 31 -150 97 -436 302 -857 583 -1195 156 -187 366 -381 556 -513 400 -278
807 -432 1325 -503 75 -10 500 -13 575 -4 39 5 90 12 115 15 25 2 56 7 70 10
13 2 41 7 61 10 20 3 50 10 68 15 17 5 34 9 36 9 33 -1 239 58 360 103 118 43
184 72 316 138 94 47 89 44 219 124 316 196 599 464 814 771 31 44 61 85 66
92 6 7 10 15 10 17 0 3 15 29 34 58 101 159 207 393 208 458 0 113 -86 211
-198 224 -23 2 -79 -12 -163 -40 -197 -66 -265 -82 -466 -108 -131 -16 -380
-12 -495 9 -8 1 -35 6 -60 10 -37 6 -239 56 -275 69 -90 30 -254 101 -315 136
-195 111 -306 195 -446 334 -182 181 -291 334 -395 551 -87 182 -158 416 -175
578 -3 29 -9 77 -13 107 -3 30 -6 109 -5 175 1 107 4 146 20 275 10 81 48 233
85 345 95 282 252 536 467 755 100 101 123 142 123 215 0 60 -18 104 -65 153
-51 55 -84 64 -248 66 -82 2 -149 2 -150 1z m-303 -544 c-53 -82 -159 -292
-200 -396 -45 -113 -92 -275 -119 -407 -22 -109 -30 -164 -42 -288 -5 -49 -4
-315 1 -375 31 -376 149 -743 337 -1050 29 -47 58 -94 63 -103 49 -82 217
-283 321 -382 214 -204 386 -324 635 -444 213 -103 477 -185 679 -211 25 -3
56 -8 70 -10 99 -17 356 -23 492 -11 100 9 162 17 171 23 34 20 -53 -102 -157
-222 -67 -77 -189 -199 -249 -248 -22 -18 -51 -42 -65 -55 -111 -95 -346 -237
-517 -314 -169 -76 -405 -149 -555 -173 -19 -3 -46 -7 -60 -10 -165 -31 -513
-36 -672 -10 -174 29 -224 39 -288 56 -41 11 -82 22 -90 24 -37 9 -144 46
-226 80 -539 220 -963 610 -1237 1138 -108 208 -207 512 -232 715 -4 26 -8 54
-10 62 -17 61 -24 369 -11 510 14 162 22 212 55 355 81 344 252 691 473 962
125 153 214 239 413 402 40 32 172 119 255 168 197 115 464 218 691 266 63 13
115 23 117 22 2 -2 -18 -35 -43 -74z"/>
<path d="M4881 6040 c-40 -17 -77 -47 -105 -88 -21 -31 -29 -58 -37 -128 -24
-218 -150 -338 -375 -358 -177 -15 -266 -203 -164 -345 37 -51 97 -82 170 -88
30 -2 73 -9 95 -15 144 -36 257 -167 270 -314 10 -102 26 -145 69 -189 85 -85
218 -87 303 -5 44 43 64 88 70 160 7 83 29 150 65 202 60 84 157 145 248 154
108 11 128 16 167 42 23 15 50 39 61 52 62 80 51 210 -23 285 -41 40 -81 56
-169 65 -101 10 -178 45 -241 107 -63 64 -93 131 -106 238 -15 123 -45 174
-124 212 -44 22 -136 28 -174 13z m97 -776 c15 -15 14 -18 -3 -30 -16 -12 -21
-12 -34 0 -12 12 -12 18 -1 30 16 20 18 20 38 0z"/>
<path d="M5745 4282 c-44 -21 -100 -79 -117 -121 -5 -14 -11 -53 -12 -86 l-2
-60 -70 -6 c-39 -4 -84 -14 -100 -22 -159 -82 -159 -308 0 -389 34 -17 74 -24
156 -27 12 -1 15 -16 17 -64 1 -77 26 -132 80 -176 46 -38 81 -49 149 -46 65
2 130 39 169 95 23 33 29 54 33 115 l5 75 31 1 c145 3 234 66 254 180 14 77
-5 137 -58 190 -52 52 -95 69 -176 69 l-52 0 -4 73 c-4 87 -33 140 -99 184
-54 36 -145 42 -204 15z"/>
</g>
</svg>
